<svg xmlns="http://www.w3.org/2000/svg" width="512" height="512" viewBox="0 0 256 256">
  <defs>
    <linearGradient id="g1" x1="0" y1="0" x2="1" y2="1">
      <stop offset="0" stop-color="#2ab3ff"/><stop offset=".55" stop-color="#1ec3ff"/><stop offset="1" stop-color="#5a8bff"/>
    </linearGradient>
    <linearGradient id="g2" x1="0" y1="0" x2="1" y2="1">
      <stop offset="0" stop-color="#8a3dff"/><stop offset="1" stop-color="#c22aff"/>
    </linearGradient>
  </defs>
  <g fill="none" stroke-linecap="round" stroke-linejoin="round">
    <path d="M20 150c0-40 45-78 96-78 52 0 92 36 92 76 0 36-28 52-56 52-40 0-36-24-62-24-30 0-70-12-70-26z" fill="url(#g1)"/>
    <path d="M92 206c24 10 46-4 62-24 10-12 16-28 12-40-6-20-28-28-46-18-26 14-42 56-28 82z" fill="url(#g2)"/>
    <g stroke="#fff" stroke-width="10">
      <path d="M54 152c26-20 62-46 94-8"/>
      <circle cx="147" cy="132" r="8" fill="#fff"/>
      <circle cx="98" cy="156" r="8" fill="#fff"/>
      <path d="M154 156c16 4 26 22 10 36"/>
      <circle cx="166" cy="192" r="8" fill="#fff"/>
    </g>
  </g>
</svg>