<?xml version="1.0" encoding="UTF-8"?>
<svg xmlns="http://www.w3.org/2000/svg" viewBox="0 0 1400 900" width="1400" height="900">
  <defs>
    <style>
      .n{stroke:#6aa3c8;stroke-opacity:.12;stroke-width:8;fill:none}
      .d{fill:#6aa3c8;fill-opacity:.08}
    </style>
  </defs>
  <g transform="translate(100,40) scale(1,1)">
    <circle class="d" cx="600" cy="460" r="380"/>
    <circle class="d" cx="420" cy="340" r="60"/>
    <circle class="d" cx="820" cy="300" r="70"/>
    <circle class="d" cx="980" cy="470" r="60"/>
    <circle class="d" cx="740" cy="620" r="70"/>
    <circle class="d" cx="380" cy="560" r="65"/>
    <path class="n" d="M420,340 C520,380 560,420 600,460 C700,540 820,600 980,470"/>
    <path class="n" d="M380,560 C500,520 560,500 600,460 C700,380 780,340 820,300"/>
    <path class="n" d="M420,340 C460,500 560,620 740,620"/>
  </g>
</svg>
