<svg xmlns="http://www.w3.org/2000/svg" width="2000" height="1200" viewBox="0 0 2000 1200">
  <defs>
    <linearGradient id="g" x1="0" y1="0" x2="1" y2="1">
      <stop offset="0%" stop-color="#cfe9ff" stop-opacity="0.65"/>
      <stop offset="100%" stop-color="#e9f2ff" stop-opacity="0.8"/>
    </linearGradient>
    <radialGradient id="glow" cx="0.5" cy="0.3" r="0.8">
      <stop offset="0%" stop-color="#ffffff" stop-opacity="0.6"/>
      <stop offset="100%" stop-color="#ffffff" stop-opacity="0"/>
    </radialGradient>
  </defs>

  <!-- soft gradient background -->
  <rect x="0" y="0" width="2000" height="1200" fill="url(#g)" />

  <!-- faint brain-ish loop -->
  <g opacity="0.12" stroke="#2b6cb0" stroke-width="40" fill="none">
    <path d="M380,760 C300,600 340,420 560,350 C740,290 940,340 1080,460 
             C1260,610 1500,550 1600,690 C1690,810 1630,980 1490,1030 
             C1350,1080 1130,1050 960,930 C800,820 570,900 480,880" />
  </g>

  <!-- neural network faint nodes/edges -->
  <g opacity="0.10" stroke="#1e3a8a" stroke-width="6">
    <circle cx="400" cy="480" r="20" fill="#1e3a8a"/>
    <circle cx="680" cy="420" r="20" fill="#1e3a8a"/>
    <circle cx="920" cy="520" r="20" fill="#1e3a8a"/>
    <circle cx="1200" cy="460" r="20" fill="#1e3a8a"/>
    <circle cx="1460" cy="620" r="20" fill="#1e3a8a"/>
    <circle cx="1320" cy="860" r="20" fill="#1e3a8a"/>
    <circle cx="980" cy="860" r="20" fill="#1e3a8a"/>
    <circle cx="700" cy="780" r="20" fill="#1e3a8a"/>
    <path d="M400,480 L680,420 L920,520 L1200,460 L1460,620 L1320,860 L980,860 L700,780 L400,480 Z" fill="none"/>
  </g>

  <!-- subtle center glow -->
  <rect x="0" y="0" width="2000" height="1200" fill="url(#glow)"/>
</svg>